<?xml version="1.0" encoding="UTF-8"?>
<svg width="432px" height="432px" viewBox="0 0 432 432" version="1.1" xmlns="http://www.w3.org/2000/svg" xmlns:xlink="http://www.w3.org/1999/xlink">
    <!-- Generator: Sketch 57.1 (83088) - https://sketch.com -->
    <title>Rage Festival_Logos_TM-01</title>
    <desc>Created with Sketch.</desc>
    <g id="Page-1" stroke="none" stroke-width="1" fill="none" fill-rule="evenodd">
        <g id="Rage-Festival_Logos_TM-01">
            <circle id="Oval" fill="#FFFFFF" cx="216" cy="216" r="209"></circle>
            <path d="M223.51,0.36 C136.291655,-2.67781241 55.8315329,47.1228067 19.648363,126.539721 C-16.5348069,205.956635 -1.3152979,299.349886 58.21,363.17 C97.1459552,405.151423 151.261597,429.807386 208.49,431.64 C211.07,431.73 213.63,431.78 216.19,431.78 C332.359658,431.667522 427.591692,339.609153 431.64,223.51 C435.78,104.61 342.42,4.5 223.51,0.36 Z M419.09,223.07 C415.170783,335.223867 321.084507,422.97087 208.93,419.07 C120.18,416 46.55,356.14 21.76,275.7 C21.7695211,275.57685 21.7695211,275.45315 21.76,275.33 C19.14,256.65 24.91,240.95 25.59,238.48 C33.87,208.48 59.74,178.48 88.88,162.99 C98.1,158.1 108.09,154.38 118.49,153.36 C125.64,152.67 133.66,153.61 138.44,158.86 C142.63,163.47 143.27,170.23 142.84,176.42 C141.11,201.42 125.76,223.42 109.49,242.82 C105.67,247.36 100.78,252.35 95.49,254.9 C98.58,239.32 102.15,222.96 105.25,207.38 C106.25,202.48 107.2,197.38 105.9,192.54 C104.6,187.7 100.32,183.3 95.26,183.54 C91.12,183.73 87.64,186.95 85.9,190.65 C84.16,194.35 83.9,198.52 83.49,202.58 C81.7026662,221.546233 78.530876,240.356386 74,258.86 C73.44,261 72.54,265 72.54,265 C72.54,265 71.48,266.25 70.54,267.16 C68.8889889,268.578697 67.402962,270.178775 66.11,271.93 C64.0378355,275.185442 64.450313,279.433961 67.11,282.23 C67.93,283.06 69.83,284.7 69.83,284.7 C69.83,284.7 69.4,286.7 69.2,287.52 L62.58,317 C61.45,322 60.34,327.32 61.87,332.23 C63.4,337.14 68.61,341.32 73.63,339.91 C79.24,338.34 81.06,331.54 81.92,325.86 C82.8866667,319.513333 83.8533333,313.16 84.82,306.8 L84.12,309.55 L91,276 C93.38,284.26 95.83,292.69 100.7,299.8 C105.57,306.91 113.37,312.64 122.1,312.85 C126.818099,312.82519 131.457687,311.640395 135.61,309.4 C149.26,302.53 158.2,289.45 165.61,276.04 C166.801846,277.290043 168.21592,278.307363 169.78,279.04 C175.21,281.55 181.96,280.09 186.87,276.64 C191.78,273.19 195.13,268.06 197.87,262.82 C200.61,257.58 202.87,252.09 206.18,247.18 C207.24,253.82 209.79,261.18 216.12,263.87 C221.56,266.22 228.12,264.26 232.95,260.79 C239.57,256.02 243.82,248.79 247.11,241.49 L247.25,241.16 C247.9434,243.224359 249.022516,245.138263 250.43,246.8 C256.18,253.35 267.24,252.85 274.63,248.07 C282.02,243.29 286.63,235.42 290.96,227.84 L290.69,251.7 C290.69,252.91 290.32,256.28 290.32,256.28 C290.32,256.28 287.7,257.28 286.25,257.88 C271.553587,264.180463 257.393628,271.665109 243.91,280.26 C237.61,284.26 231.41,288.59 226.45,294.13 C213.67,308.37 212.99,334 234.71,340.13 C245.91,343.3 258.17,339.45 267.84,332.98 C289.18,318.71 299.92,293.4 305.72,268.72 C306.06,267.26 306.45,264.72 306.45,264.72 C306.45,264.72 309.45,263.16 310.68,262.65 C325.707383,256.164349 341.061385,250.463341 356.68,245.57 C355.9,243.18 357.75,240.66 357.53,238.15 C357.31,235.64 354.74,233.54 352.08,233.08 C349.42,232.62 346.72,233.33 344.13,234.08 L343.44,234.28 C331.3,237.88 319.58,242.72 307.87,247.54 C308.73,219.54 309.586667,191.54 310.44,163.54 C310.644374,161.409106 310.430364,159.258811 309.81,157.21 C308.620218,154.215792 305.864888,152.13099 302.66,151.8 C299.42767,151.54513 296.315198,153.080259 294.55,155.8 C293.883333,160.113333 293.24,164.423333 292.62,168.73 C291.62,160.61 281.25,156.25 273.28,158.67 C265.31,161.09 259.68,168.1 255.62,175.27 C252.439021,180.887887 249.890145,186.840855 248.02,193.02 C247.87,193.37 247.72,193.72 247.59,194.02 C242.32,207.81 240.32,222.68 234.05,236.08 C232.22,239.99 229.9,243.89 226.22,246.3 C225.179996,247.131484 223.825719,247.460903 222.52,247.2 C220.98,246.69 220.35,244.96 219.99,243.43 C214.84,221.71 223.35,199.27 225.21,177 C225.39,174.86 225.41,172.45 223.91,170.89 C223.049168,170.073676 221.961541,169.536834 220.79,169.35 C217.659307,168.755208 214.431939,169.678903 212.09,171.84 C211.097849,172.787245 210.326275,173.941193 209.83,175.22 C209.198413,176.806963 209.025169,178.539395 209.33,180.22 C206.12,175.92 199.53,175.05 194.38,176.99 C189.23,178.93 185.23,183 182,187.32 C171.72,200.79 166,216.97 162.13,233.26 C160.41308,239.955484 159.407512,246.813459 159.13,253.72 C157.796667,255.88 156.526667,258.08 155.32,260.32 C152.32,266.07 149.77,272.11 146.23,277.57 C142.393105,283.451201 137.447749,288.529022 131.67,292.52 C129.03,294.34 125.72,295.99 122.67,294.89 C120.67,294.18 119.32,292.44 118.15,290.73 C113.693547,284.246858 110.475984,276.994626 108.66,269.34 C108.408086,268.561592 108.363282,267.730989 108.53,266.93 C108.886998,266.058928 109.479019,265.304187 110.24,264.75 C129.178973,247.996408 144.434104,227.493921 155.04,204.54 C159.28,195.34 162.77,185.64 163.43,175.54 C164.09,165.44 161.67,154.94 155.17,147.17 C147.64,138.17 135.4,133.87 123.53,133.84 C111.66,133.81 100.08,137.61 89.28,142.51 C69.28,151.6 50.92,164.78 37.21,181.82 C35.4366667,184.006667 33.77,186.263333 32.21,188.59 C24.1394398,200.15491 17.9308099,212.912969 13.81,226.4 C13.61,227.08 13.4,227.8 13.19,228.56 C12.8008765,222.08 12.69,215.56 12.92,208.9 C16.7523414,99.5769708 106.429875,12.900474 215.82,12.79 C218.24,12.79 220.65,12.79 223.08,12.92 C291.266875,15.3187569 353.696377,51.7847984 389.28,110 C393.28,118.16 393.98,127.58 392.62,136.59 C391.15,146.4 387.36,155.83 383.24,165.04 C376.95,179.04 369.6,193.04 358.19,204.04 C353.61,208.45 347.81,212.55 341.27,212.5 C340.145169,212.562582 339.027311,212.28747 338.06,211.71 C337.22025,211.002571 336.613765,210.057988 336.32,209 C333.865017,202.265786 333.492202,194.948866 335.25,188 C335.268631,187.908846 335.291996,187.818724 335.32,187.73 C338.77,190.05 343.77,189.73 347.62,187.85 C351.47,185.97 354.34,182.7 356.68,179.29 C362.2,171.29 365.27,162 367.09,152.7 C368.14,147.34 368.77,141.7 367.09,136.57 C365.41,131.44 360.85,126.78 355.02,126.17 C349.8,125.63 344.72,128.28 340.64,131.44 C332.08,138.07 326.14,147.21 322.24,156.82 C315.32,173.82 312.56,192.46 316.24,210.18 C317.05,214.13 318.3,218.09 320.84,221.33 C326.99,229.19 339.59,230.93 349.68,227.56 C359.77,224.19 367.68,216.79 374.37,208.99 C390.643687,190.02097 401.37032,166.931027 405.37,142.26 C415.417809,167.975989 420.087257,195.478769 419.09,223.07 Z M179.47,234 C181.379672,227.106037 183.676653,220.325269 186.35,213.69 C189.5,205.85 193.35,197.94 200.04,192.51 C200.40587,192.18632 200.825524,191.929113 201.28,191.75 C201.577677,191.639026 201.902141,191.621582 202.21,191.7 C202.570853,191.81341 202.8952,192.02044 203.15,192.3 C204.341296,193.445733 205.088744,194.976053 205.26,196.62 C205.328403,197.673027 205.271336,198.730451 205.09,199.77 C202.832271,215.799683 198.028413,231.365802 190.86,245.88 C189.479163,248.854218 187.786334,251.673364 185.81,254.29 C185.103614,255.278048 184.184322,256.094817 183.12,256.68 C182.026578,257.266882 180.705298,257.236508 179.64,256.6 C178.921938,255.990718 178.41161,255.172795 178.18,254.26 C175.83,247.39 177.6,240.82 179.47,234 Z M264.29,203.24 C265.85,195.38 268.29,187.53 273.03,180.91 C275.17,177.91 278.39,175 282.03,175.5 C284.687938,176.03088 286.862901,177.935401 287.74,180.5 C288.55995,183.00633 288.826077,185.660778 288.52,188.28 C287.414042,202.888015 282.138506,216.871658 273.32,228.57 C272.375823,230.028333 271.11873,231.258099 269.64,232.17 C268.598536,232.933142 267.248664,233.136051 266.028868,232.712815 C264.809071,232.28958 263.874973,231.294197 263.53,230.05 C263.35344,229.500495 263.216424,228.939062 263.12,228.37 C261.55,219.92 262.64,211.61 264.29,203.26 L264.29,203.24 Z M287.29,275.16 C283.42,292.43 271.55,308.78 256.76,318.87 C252.86,321.53 248.39,323.87 243.66,323.64 C238.77,323.39 233.56,319.22 234.6,314.05 C235.64,308.88 239.96,303.83 243.71,300.31 C248.113053,296.37144 252.947052,292.943024 258.12,290.09 C267.552629,284.576962 277.288019,279.599093 287.28,275.18 L287.29,275.16 Z M339.59,159.58 C341.490842,154.594356 344.215392,149.963297 347.65,145.88 C348.38,145.04 349.4,144.14 350.53,144.34 C351.049645,144.449871 351.511652,144.744845 351.83,145.17 C352.83,146.39 352.58,148.09 352.29,149.6 C351.418181,154.046995 350.122259,158.400221 348.42,162.6 C346.51,167.33 343.83,172.16 339.13,174.78 C338.763934,175.016364 338.344516,175.157316 337.91,175.19 C337.323674,175.163034 336.795174,174.828444 336.52,174.31 C336.361165,174.05276 336.252578,173.767719 336.2,173.47 C335.29,168.94 337.82,163.93 339.58,159.6 L339.59,159.58 Z" id="Shape" fill="#000000" fill-rule="nonzero"></path>
            <path d="M379.09,223.91 L379.09,226.16 L374.74,226.16 L374.74,237.51 L372,237.51 L372,226.16 L367.64,226.16 L367.64,223.91 L379.09,223.91 Z M393.79,237.51 L393.29,229.51 C393.24,228.51 393.24,227.16 393.19,225.71 L393,225.71 C392.65,226.91 392.25,228.51 391.85,229.71 L389.4,237.26 L386.6,237.26 L384.15,229.51 C383.9,228.46 383.5,226.86 383.2,225.66 L383.05,225.66 C383.05,226.91 383.05,228.21 382.95,229.46 L382.45,237.46 L379.85,237.46 L380.85,223.86 L384.9,223.86 L387.25,230.51 C387.55,231.56 387.8,232.56 388.15,233.96 L388.2,233.96 C388.55,232.71 388.85,231.56 389.15,230.56 L391.5,223.86 L395.4,223.86 L396.45,237.46 L393.79,237.51 Z" id="Shape" fill="#000000" fill-rule="nonzero"></path>
            <path d="M186.34,136.84 L182.74,137.96 C182.048591,138.165323 181.521289,138.727013 181.36,139.43 C181.241655,139.718242 181.187073,140.028677 181.2,140.34 C181.219995,140.63633 181.219995,140.93367 181.2,141.23 C181.185052,141.523143 181.185052,141.816857 181.2,142.11 C181.227908,142.405406 181.271301,142.699143 181.33,142.99 C181.395664,143.296466 181.43911,143.607275 181.46,143.92 L181.46,144.26 C181.569127,144.355162 181.640161,144.486575 181.66,144.63 C181.68628,144.764792 181.737126,144.893601 181.81,145.01 C181.947883,145.142869 182.102524,145.257168 182.27,145.35 C182.409144,145.448876 182.560373,145.529531 182.72,145.59 C182.78699,145.660316 182.883875,145.693853 182.98,145.68 L183.24,145.68 C184.118857,145.519654 184.987132,145.305925 185.84,145.04 C186.130062,144.961894 186.411491,144.854683 186.68,144.72 C187.064885,144.491747 187.474096,144.307266 187.9,144.17 L189.09,143.85 C189.533213,143.656897 190.036787,143.656897 190.48,143.85 C190.801245,144.092128 191.013409,144.451727 191.07,144.85 C191.102857,144.940442 191.102857,145.039558 191.07,145.13 C191.059919,145.223061 191.059919,145.316939 191.07,145.41 C191.091387,146.101225 191.16493,146.789848 191.29,147.47 C191.35,147.83 191.42,148.38 191.48,149.13 C191.548569,149.757105 191.344635,150.383473 190.92,150.85 C190.75,151.1 190.61,151.22 190.49,151.22 C190.38802,151.33815 190.257068,151.427748 190.11,151.48 C189.970946,151.531697 189.839704,151.602366 189.72,151.69 C189.62,151.84 189.41,151.9 189.1,151.88 C188.946347,151.887357 188.794663,151.917693 188.65,151.97 L187.92,152.2 C187.771663,152.250044 187.616523,152.277024 187.46,152.28 C186.795649,152.369628 186.142234,152.527118 185.51,152.75 L184.08,153.23 C183.386182,153.518955 182.81621,154.042904 182.47,154.71 C182.432865,154.788838 182.409204,154.873341 182.4,154.96 C182.384692,155.045375 182.361252,155.12909 182.33,155.21 C182.235915,155.517296 182.201962,155.839849 182.23,156.16 C182.23,156.38 182.23,156.78 182.3,157.37 C182.319413,157.879082 182.389765,158.38494 182.51,158.88 C182.58,159.36 182.66,160.08 182.74,161.05 C182.74,161.27 182.74,161.65 182.74,162.2 C182.720376,162.614642 182.743835,163.030201 182.81,163.44 C182.721802,163.785961 182.691393,164.144121 182.72,164.5 L182.87,165.66 C182.861483,166.017695 182.881547,166.375499 182.93,166.73 C182.93,167.02 183,167.28 183.02,167.5 C183.051653,168.292707 182.644197,169.038428 181.96,169.44 C181.728115,169.569777 181.487543,169.683381 181.24,169.78 L180.73,169.97 C180.515336,170.058562 180.290145,170.119061 180.06,170.15 C179.715379,170.231493 179.380223,170.348797 179.06,170.5 C178.797705,170.630879 178.527127,170.744455 178.25,170.84 C177.84,171.01 177.25,171.22 176.45,171.46 L175.45,171.56 C175.213534,171.496139 174.990135,171.391209 174.79,171.25 C174.524468,171.025008 174.356087,170.70616 174.32,170.36 L174.32,170.25 L174.09,168.08 C174.066582,167.720381 174.066582,167.359619 174.09,167 C174.110672,166.185803 174.08396,165.371094 174.01,164.56 L173.82,162.21 L173.45,157.45 L173.07,152.74 L172.88,149.53 C172.82,148.83 172.76,148.31 172.7,147.98 C172.56,147.26 172.44,146.12 172.31,144.55 L172.13,142.25 L171.9,139.25 L171.78,137.8 C171.751493,137.317093 171.694729,136.83627 171.61,136.36 C171.580506,136.127599 171.580506,135.892401 171.61,135.66 C171.639709,135.427612 171.639709,135.192388 171.61,134.96 C171.664292,134.562394 171.823016,134.186286 172.07,133.87 C172.282729,133.529883 172.592823,133.261599 172.96,133.1 C173.784161,132.885392 174.592708,132.614762 175.38,132.29 C175.82,132.11 176.5,131.88 177.38,131.6 L183.11,129.81 C183.556343,129.662277 184.010337,129.538764 184.47,129.44 C185.026244,129.336781 185.571859,129.182804 186.1,128.98 C186.351037,129.024043 186.609157,129.003393 186.85,128.92 C186.991503,128.888958 187.124573,128.827541 187.24,128.74 C187.451111,128.615898 187.671816,128.50889 187.9,128.42 L188.52,128.23 L188.92,128.1 C189.25272,128.071409 189.58728,128.071409 189.92,128.1 C190.108237,128.110734 190.290639,128.16924 190.45,128.27 C190.564877,128.337906 190.669298,128.422116 190.76,128.52 C190.903141,128.675115 190.98181,128.878938 190.98,129.09 L190.98,129.25 C191.006076,129.527173 191.056266,129.801545 191.13,130.07 C191.21426,130.332518 191.264667,130.604718 191.28,130.88 L191.46,133.06 C191.529382,133.862332 191.23154,134.652899 190.65,135.21 C190.423021,135.445747 190.136066,135.615154 189.82,135.7 L186.34,136.84 Z" id="Path" fill="#000000" fill-rule="nonzero"></path>
            <path d="M204.57,123.27 C207.99,122.196667 210.543333,121.416667 212.23,120.93 C212.907883,120.602225 213.72384,120.839673 214.12,121.48 C214.16774,121.61904 214.197973,121.763485 214.21,121.91 C214.247777,122.314975 214.318002,122.716264 214.42,123.11 C214.531941,123.676916 214.595503,124.25232 214.61,124.83 C214.748847,125.089738 214.830669,125.376115 214.85,125.67 L214.85,126.59 C214.897654,127.042479 214.780482,127.496962 214.52,127.87 C214.241291,128.244742 213.84814,128.518544 213.4,128.65 C213.03,128.76 212.59,128.87 212.1,128.97 C211.674129,129.041612 211.25801,129.162421 210.86,129.33 L209.74,129.68 C209.21,129.84 208.74,129.97 208.38,130.05 C208.018568,130.119934 207.661341,130.210076 207.31,130.32 C206.982231,130.429468 206.648324,130.519623 206.31,130.59 C205.813194,130.750024 205.390711,131.08375 205.12,131.53 C205.040626,131.642391 204.953763,131.7493 204.86,131.85 C204.77197,131.912889 204.71689,132.012033 204.71,132.12 C204.730915,132.28601 204.730915,132.45399 204.71,132.62 L204.62,133.01 C204.62,133.37 204.54,133.9 204.52,134.6 C204.495401,134.902835 204.495401,135.207165 204.52,135.51 C204.541499,135.806146 204.584952,136.100287 204.65,136.39 C204.678048,136.701499 204.759221,137.005896 204.89,137.29 C205.159416,137.97449 205.860832,138.387088 206.59,138.29 C206.681066,138.319096 206.778934,138.319096 206.87,138.29 C207.196697,138.18922 207.531171,138.115636 207.87,138.07 C208.208727,138.023791 208.543154,137.950217 208.87,137.85 L210.21,137.37 C210.558511,137.247894 210.91635,137.154254 211.28,137.09 C211.759246,136.926183 212.263664,136.848319 212.77,136.86 C213.392281,136.890262 213.939553,137.28117 214.17,137.86 C214.234553,138.149804 214.278,138.443909 214.3,138.74 C214.311501,139.016751 214.351716,139.291559 214.42,139.56 C214.42,139.71 214.42,139.94 214.42,140.24 C214.420758,140.482757 214.450979,140.724525 214.51,140.96 C214.518222,141.11173 214.501328,141.263776 214.46,141.41 C214.42519,141.554601 214.42519,141.705399 214.46,141.85 L214.46,141.96 C214.527097,142.269741 214.527097,142.590259 214.46,142.9 C214.369309,143.214286 214.204726,143.502306 213.98,143.74 C213.779888,144.009549 213.505269,144.214644 213.19,144.33 L212.25,144.77 C211.907544,144.928698 211.548738,145.049418 211.18,145.13 C210.949232,145.310563 210.688631,145.449325 210.41,145.54 C210.262921,145.596011 210.107344,145.62645 209.95,145.63 C209.584278,145.64894 209.223527,145.723113 208.88,145.85 L208.32,146.05 C208.043896,146.153689 207.759561,146.233971 207.47,146.29 C206.967803,146.37664 206.540988,146.706111 206.33,147.17 L206.02,147.61 L205.86,147.83 C205.786094,148.057049 205.739105,148.291991 205.72,148.53 C205.691431,148.789215 205.691431,149.050785 205.72,149.31 L205.8,149.52 C205.89221,149.640464 205.94149,149.788303 205.94,149.94 C206.001054,150.558107 206.031091,151.178886 206.03,151.8 C206.046408,152.002639 206.093617,152.201592 206.17,152.39 C206.242959,152.578949 206.286792,152.777885 206.3,152.98 L206.3,153.15 C206.305647,153.217294 206.333834,153.280714 206.38,153.33 L206.5,153.43 C207.012066,153.927019 207.770428,154.072404 208.43,153.8 C208.756846,153.699783 209.091273,153.626209 209.43,153.58 C209.76896,153.530264 210.103371,153.453349 210.43,153.35 L213.07,152.53 L215.38,151.8 C215.894249,151.6144 216.469448,151.784529 216.8,152.22 L216.95,152.69 C216.95,152.8 216.95,152.95 216.95,153.15 C216.92791,153.304567 216.993387,153.458631 217.12,153.55 C217.076636,153.784109 217.056538,154.021934 217.06,154.26 C217.06,154.56 217.06,154.93 217.12,155.39 C217.18,155.85 217.19,156.39 217.27,156.95 C217.30174,157.413344 217.244024,157.878467 217.1,158.32 C216.883311,158.902237 216.439364,159.371449 215.87,159.62 C215.733945,159.707903 215.585689,159.775292 215.43,159.82 C215.2728,159.864709 215.121673,159.928518 214.98,160.01 C214.785639,160.155989 214.539066,160.214006 214.3,160.17 C214.197794,160.148411 214.092206,160.148411 213.99,160.17 L213.68,160.27 L202.04,163.91 C201.66176,164.035315 201.273757,164.128971 200.88,164.19 C200.507388,164.249242 200.139705,164.336149 199.78,164.45 C199.454591,164.538902 199.115404,164.566037 198.78,164.53 C198.484998,164.480313 198.222134,164.314673 198.05,164.07 C197.926685,163.94833 197.837092,163.796711 197.79,163.63 C197.751538,163.489384 197.701363,163.352238 197.64,163.22 C197.554275,162.890763 197.487499,162.556882 197.44,162.22 C197.413462,161.990766 197.413462,161.759234 197.44,161.53 C197.466341,160.732441 197.439615,159.934013 197.36,159.14 C197.36,158.81 197.29,158.39 197.24,157.89 C197.172708,157.302303 197.135991,156.711507 197.13,156.12 L196.7,150.74 C196.684248,150.521059 196.637099,150.305521 196.56,150.1 C196.484584,149.873349 196.437559,149.638222 196.42,149.4 L196.42,149.23 C196.442637,148.937103 196.442637,148.642897 196.42,148.35 C196.381667,148.141647 196.354959,147.931321 196.34,147.72 C196.34,147.6 196.34,147.44 196.34,147.23 C196.337305,147.051642 196.371344,146.874637 196.44,146.71 C196.471181,146.568362 196.471181,146.421638 196.44,146.28 C196.387948,146.117397 196.387948,145.942603 196.44,145.78 C196.389472,145.515727 196.389472,145.244273 196.44,144.98 C196.473811,144.687641 196.473811,144.392359 196.44,144.1 L196.44,143.94 C196.421872,143.866757 196.387718,143.798448 196.34,143.74 C196.275639,143.648689 196.237588,143.541456 196.23,143.43 L196.23,143 C196.23,142.84 196.23,142.75 196.07,142.71 C196.087089,142.513466 196.048993,142.316062 195.96,142.14 C195.878912,141.944978 195.825072,141.739715 195.8,141.53 C195.353333,135.85 195.036667,131.586667 194.85,128.74 C194.792917,127.987639 195.021432,127.241396 195.49,126.65 C195.589701,126.483538 195.740529,126.353756 195.92,126.28 C195.987702,126.264143 196.047794,126.22526 196.09,126.17 C196.132071,126.121344 196.187828,126.086495 196.25,126.07 C196.384439,126.008577 196.514717,125.938427 196.64,125.86 C196.792675,125.753631 196.961511,125.67259 197.14,125.62 L199.67,124.82 L204.57,123.27 Z" id="Path" fill="#000000" fill-rule="nonzero"></path>
            <path d="M227.15,116.54 L230.15,115.61 C230.41011,115.562538 230.658228,115.46397 230.88,115.32 C231.143976,115.163091 231.426044,115.038847 231.72,114.95 L231.88,114.89 L232.79,114.67 L233.68,114.33 C233.901636,114.263574 234.129491,114.220014 234.36,114.2 C234.573917,114.191132 234.785736,114.154148 234.99,114.09 C235.210345,114.022647 235.439593,113.988934 235.67,113.99 L236.19,113.99 C236.573054,113.969308 236.956946,113.969308 237.34,113.99 C237.677714,114.004352 238.012938,114.054636 238.34,114.14 C238.586463,114.182259 238.825573,114.259717 239.05,114.37 L239.66,114.81 C240.090606,115.123724 240.406697,115.569763 240.56,116.08 C240.794515,116.724796 240.945738,117.396897 241.01,118.08 C240.983721,118.190349 241.005531,118.306666 241.07,118.4 C241.130348,118.515019 241.167711,118.640693 241.18,118.77 L241.18,118.88 C241.103549,119.14425 241.171945,119.429232 241.36,119.63 C241.397777,120.034975 241.468002,120.436264 241.57,120.83 C241.668467,121.246417 241.722105,121.672172 241.73,122.1 C241.685914,122.381423 241.659197,122.665293 241.65,122.95 C241.628783,123.327859 241.571862,123.702864 241.48,124.07 C241.417694,124.360864 241.291291,124.634167 241.11,124.87 L240.72,125.4 C240.474388,125.63936 240.171351,125.81154 239.84,125.9 L238.6,126.29 C238.34,126.37 238.01,126.47 237.6,126.57 C237.115585,126.705917 236.638315,126.866119 236.17,127.05 C235.881331,127.138277 235.587424,127.208414 235.29,127.26 L234.64,127.36 C234.493779,127.386048 234.343546,127.345741 234.23,127.25 C233.942605,127.181346 233.685961,127.019625 233.5,126.79 C233.285702,126.647916 233.157775,126.407112 233.16,126.15 C233.17408,125.853202 233.140315,125.556071 233.06,125.27 C232.98,124.95 232.91,124.72 232.86,124.58 C232.855282,124.190732 232.625085,123.839583 232.27,123.68 C231.935612,123.482746 231.538096,123.421865 231.16,123.51 C230.8221,123.551355 230.487813,123.618212 230.16,123.71 L229.88,123.8 C229.541452,123.900136 229.223237,124.059243 228.94,124.27 C228.411344,124.621672 228.049923,125.174647 227.94,125.8 C227.848889,126.087372 227.811598,126.389092 227.83,126.69 C227.89005,126.894399 227.917057,127.10708 227.91,127.32 C227.911377,127.535739 227.93823,127.75056 227.99,127.96 C228.021122,128.232353 228.08147,128.500564 228.17,128.76 C228.210821,128.990386 228.331134,129.199165 228.51,129.35 C228.841058,129.627414 229.20762,129.859458 229.6,130.04 C229.945842,130.164794 230.300054,130.265043 230.66,130.34 C231.027362,130.381359 231.38545,130.482705 231.72,130.64 C231.89457,130.592001 232.080948,130.613506 232.24,130.7 C232.404411,130.782138 232.586243,130.823307 232.77,130.82 C233.148108,130.871231 233.522302,130.948075 233.89,131.05 L234.95,131.4 C235.384047,131.536201 235.83519,131.610269 236.29,131.62 L237.4,131.78 C237.603918,131.801651 237.803082,131.855661 237.99,131.94 C238.144955,132.018182 238.305376,132.085024 238.47,132.14 C238.815434,132.266057 239.169739,132.366332 239.53,132.44 L240.6,132.85 C241.342263,133.177039 241.939641,133.76375 242.28,134.5 C242.536908,135.108 242.740995,135.736989 242.89,136.38 C243.043704,137.104681 243.140665,137.840243 243.18,138.58 L243.36,140.07 C243.380685,140.319572 243.380685,140.570428 243.36,140.82 C243.325443,141.540275 243.342152,142.262096 243.41,142.98 C243.464418,143.528303 243.491119,144.079004 243.49007,144.63 C243.492553,145.265413 243.425486,145.899194 243.29,146.52 C243.335978,146.767623 243.31527,147.023019 243.23,147.26 C243.156832,147.492409 243.100027,147.729656 243.06,147.97 C243.043869,148.47572 242.880527,148.965745 242.59,149.38 C242.142775,150.185474 241.508236,150.871462 240.74,151.38 C240.26751,151.647936 239.810149,151.941715 239.37,152.26 C239.158357,152.376657 238.933393,152.467314 238.7,152.53 C238.605124,152.567489 238.519742,152.625549 238.45,152.7 C238.362434,152.778637 238.260593,152.839741 238.15,152.88 C237.776854,152.959337 237.41668,153.090616 237.08,153.27 C236.723282,153.448372 236.347571,153.585909 235.96,153.68 C235.595678,153.908608 235.202111,154.08689 234.79,154.21 C234.513749,154.294225 234.233386,154.364316 233.95,154.42 C233.656817,154.475398 233.37141,154.566057 233.1,154.69 C232.783865,154.824394 232.443507,154.892465 232.1,154.89 C231.93443,154.90297 231.772194,154.943529 231.62,155.01 C231.474046,155.091548 231.303165,155.116469 231.14,155.08 C231.14,155.08 231.03,155.08 230.94,155.08 L230.74,155.17 C230.48,155.25 230.15,155.35 229.74,155.45 C229.292308,155.572493 228.85165,155.719379 228.42,155.89 C227.939308,156.034477 227.441716,156.115168 226.94,156.13 L225.94,156.13 C225.654201,156.161541 225.365799,156.161541 225.08,156.13 C224.373605,156.07596 223.671879,155.972372 222.98,155.82 C222.783561,155.767529 222.59984,155.675669 222.44,155.55 L222.02,155.26 C221.568615,155.070422 221.209578,154.711385 221.02,154.26 C220.867711,154.00602 220.769019,153.723556 220.73,153.43 C220.695588,152.649312 220.615451,151.871311 220.49,151.1 C220.33,150.1 220.23,149.31 220.19,148.78 C220.202442,148.445847 220.185712,148.111245 220.14,147.78 C220.14,147.5 220.07,147.27 220.06,147.08 C220.01836,146.283642 220.287214,145.502175 220.81,144.9 C220.866447,144.804516 220.949978,144.727946 221.05,144.68 L221.24,144.59 C221.587641,144.318676 221.985154,144.118221 222.41,144 L224.26,143.41 C224.629554,143.287477 225.007116,143.190581 225.39,143.12 C225.852633,143.048533 226.305576,142.924393 226.74,142.75 C226.884508,142.785589 227.035492,142.785589 227.18,142.75 C227.305693,142.730701 227.429486,142.700589 227.55,142.66 C227.871745,142.659794 228.169127,142.83136 228.33,143.11 C228.382159,143.186456 228.446317,143.253992 228.52,143.31 C228.587412,143.361877 228.633625,143.436528 228.65,143.52 C228.626634,143.696474 228.650799,143.875987 228.72,144.04 C228.78666,144.203187 228.830409,144.374816 228.85,144.55 L228.85,144.72 C228.865482,145.204194 229.021869,145.673356 229.3,146.07 C229.684756,146.554345 230.297724,146.798009 230.91,146.71 C231.3159,146.679114 231.715986,146.595062 232.1,146.46 L232.89,146.21 C233.248229,146.06634 233.550059,145.810136 233.75,145.48 C234.13494,144.991329 234.333446,144.381634 234.31,143.76 C234.299231,143.500689 234.238094,143.245953 234.13,143.01 C234.13,142.93 234.13,142.83 234.13,142.69 C234.137256,142.560018 234.07177,142.436749 233.96,142.37 C233.693316,141.455529 233.017247,140.716656 232.13,140.37 C231.316007,140.020335 230.46337,139.768572 229.59,139.62 L228.59,139.52 L227.65,139.3 C227.311719,139.261042 226.977243,139.194147 226.65,139.1 L225.65,138.82 C225.551074,138.80233 225.453994,138.775549 225.36,138.74 C225.224167,138.718646 225.085833,138.718646 224.95,138.74 C224.88,138.74 224.79,138.74 224.68,138.66 C224.595267,138.578114 224.4733,138.547622 224.36,138.58 L224.25,138.58 L223.25,138.21 C222.611117,137.827288 222.01447,137.378127 221.47,136.87 L220.73,136.24 C220.213989,135.870046 219.814883,135.359884 219.58,134.77 C219.445924,134.526226 219.364182,134.25716 219.34,133.98 C219.34,132.98 219.17,131.59 218.95,129.74 C218.85,128.97 218.74,127.74 218.61,126.18 C218.587298,125.847053 218.587298,125.512947 218.61,125.18 C218.61,124.746667 218.63,124.396667 218.67,124.13 C218.676852,123.452654 218.777818,122.779547 218.97,122.13 C219.083404,121.752517 219.248288,121.392463 219.46,121.06 C219.999995,120.250975 220.638195,119.512007 221.36,118.86 C221.789142,118.460439 222.291774,118.147992 222.84,117.94 C223.002032,117.841671 223.16891,117.751557 223.34,117.67 C223.553659,117.557641 223.778135,117.467181 224.01,117.4 L224.18,117.4 C224.4772,117.344143 224.768485,117.26044 225.05,117.15 L225.7,116.92 L227.15,116.54 Z" id="Path" fill="#000000" fill-rule="nonzero"></path>
            <path d="M248.37,109.32 L250,108.81 C250.3286,108.708763 250.662418,108.625308 251,108.56 C251.337655,108.495019 251.67149,108.411561 252,108.31 L254.7,107.46 L257.01,106.74 L259.37,106 L261.73,105.26 C262.017175,105.173215 262.297872,105.066283 262.57,104.94 C262.843923,104.818018 263.124346,104.71119 263.41,104.62 L263.69,104.53 L265.69,103.9 C266.257855,103.653288 266.917281,103.75864 267.38,104.17 C267.562928,104.318872 267.666373,104.544235 267.66,104.78 C267.66,105.15 267.73,105.6 267.8,106.14 C267.87,106.68 267.9,107.3 267.92,108.02 C267.888583,108.572887 267.888583,109.127113 267.92,109.68 C267.893628,109.999719 267.790734,110.308402 267.62,110.58 C267.465005,110.87236 267.237805,111.120216 266.96,111.3 C266.692376,111.503977 266.391184,111.659649 266.07,111.76 L265.76,111.82 C265.610719,111.856476 265.481561,111.949757 265.4,112.08 C265.358904,112.131882 265.303158,112.170208 265.24,112.19 C265.164628,112.209923 265.085372,112.209923 265.01,112.19 L264.38,112.27 L263.94,112.53 C263.858447,112.591519 263.761619,112.629558 263.66,112.64 L263.43,112.64 C262.646199,112.936197 262.010405,113.528886 261.66,114.29 C261.500481,114.598076 261.427883,114.943781 261.45,115.29 L261.45,115.52 C261.505628,115.726316 261.505628,115.943684 261.45,116.15 C261.404119,116.383764 261.383998,116.621852 261.39,116.86 L261.39,117 C261.454204,117.211097 261.49117,117.429532 261.5,117.65 C261.520492,117.879544 261.520492,118.110456 261.5,118.34 C261.468145,118.612405 261.468145,118.887595 261.5,119.16 L261.5,119.33 C261.568085,119.501873 261.621606,119.679164 261.66,119.86 L261.73,120.75 C261.73546,120.990459 261.772442,121.229162 261.84,121.46 C261.975412,121.963153 262.055882,122.479503 262.08,123 L262.16,124.06 C262.195486,124.392389 262.195486,124.727611 262.16,125.06 C262.113108,125.351459 262.113108,125.648541 262.16,125.94 C262.081979,126.345051 262.058437,126.758712 262.09,127.17 C262.113093,127.465968 262.156529,127.759996 262.22,128.05 C262.275832,128.346583 262.299303,128.648351 262.29,128.95 C262.454447,129.555267 262.561586,130.174663 262.61,130.8 L262.73,133.05 C262.79,133.38 262.85,133.88 262.9,134.55 C262.951638,135.058311 262.975008,135.569097 262.97,136.08 C262.989778,136.391566 263.043427,136.700051 263.13,137 C263.209041,137.284238 263.259293,137.575705 263.28,137.87 L263.48,140.34 C263.504084,140.572712 263.504084,140.807288 263.48,141.04 C263.454734,141.289362 263.454734,141.540638 263.48,141.79 C263.538339,142.046727 263.538339,142.313273 263.48,142.57 C263.423102,142.815845 263.396239,143.067685 263.4,143.32 C263.420589,143.378234 263.420589,143.441766 263.4,143.5 C263.09,143.94 262.88,144.22 262.78,144.33 C262.731634,144.438793 262.646729,144.527235 262.54,144.58 C262.462158,144.633163 262.378227,144.676808 262.29,144.71 C262.030056,144.791665 261.778832,144.898854 261.54,145.03 C261.284376,145.174927 261.012481,145.289056 260.73,145.37 C260.421862,145.426221 260.117846,145.50306 259.82,145.6 C259.586607,145.662686 259.361643,145.753343 259.15,145.87 L258.43,146.21 L257.7,146.44 L257.25,146.58 C256.85955,146.709246 256.441321,146.729985 256.04,146.64 C255.660355,146.569627 255.31137,146.384665 255.04,146.11 C255.04,146.11 255.04,146.01 255.04,145.91 C255.041379,145.832137 254.986497,145.764589 254.91,145.75 C254.890575,145.558578 254.846891,145.370403 254.78,145.19 C254.714689,145.04724 254.67088,144.895595 254.65,144.74 C254.59,144.42 254.54,144.1 254.49,143.79 C254.44,143.48 254.4,143.18 254.34,142.89 C254.246072,142.531688 254.175919,142.167562 254.13,141.8 C254.13,141.66 254.13,141.48 254.13,141.29 C254.135289,141.08769 254.111719,140.885659 254.06,140.69 C254.06,140.5 254.06,140.17 253.95,139.69 C253.895182,139.261747 253.895182,138.828253 253.95,138.4 C253.969434,138.113663 253.969434,137.826337 253.95,137.54 L253.8,135.69 C253.778703,135.293619 253.778703,134.896381 253.8,134.5 C253.82245,133.628982 253.792396,132.757403 253.71,131.89 C253.71,131.59 253.71,131.22 253.65,130.79 C253.632998,130.294309 253.586247,129.800086 253.51,129.31 C253.357366,128.527557 253.257143,127.735796 253.21,126.94 C253.130928,126.537125 253.077487,126.12964 253.05,125.72 C253.036375,125.541775 253.053285,125.362532 253.1,125.19 C253.130832,125.014679 253.130832,124.835321 253.1,124.66 L253.04,124.23 C252.998099,124.022389 253.029927,123.806664 253.13,123.62 C253.165356,123.57441 253.183106,123.517609 253.18,123.46 C253.172651,123.412598 253.147645,123.36973 253.11,123.34 C253.045189,123.209216 252.994889,123.071731 252.96,122.93 L252.96,122.31 L252.96,122.09 C252.854498,121.659349 252.780965,121.22149 252.74,120.78 L252.64,119.49 C252.607837,119.043878 252.551084,118.599869 252.47,118.16 C252.45564,117.784759 252.257408,117.440659 251.94,117.24 C251.487106,116.957364 250.942527,116.86063 250.42,116.97 C250.113868,117.020278 249.81272,117.097238 249.52,117.2 L248.11,117.64 C247.78415,117.748472 247.449588,117.828767 247.11,117.88 C246.754294,117.963415 246.381807,117.939047 246.04,117.81 C245.709089,117.698918 245.445057,117.445887 245.32,117.12 C245.247725,116.894129 245.190927,116.663595 245.15,116.43 L244.96,114.02 C244.912482,113.870348 244.912482,113.709652 244.96,113.56 C244.997025,113.406173 245.013834,113.248174 245.01,113.09 L245.01,113 L244.93,111.93 C244.990034,111.262791 245.360461,110.6627 245.93,110.31 C246.13889,110.181794 246.35997,110.074604 246.59,109.99 L246.76,109.93 L248.37,109.32 Z" id="Path" fill="#000000" fill-rule="nonzero"></path>
            <path d="M280.38,106.7 L280.73,111.18 C280.744114,111.39332 280.780991,111.604519 280.84,111.81 C280.896807,112.032946 280.933619,112.260514 280.95,112.49 L280.95,112.72 C280.95,112.83 280.95,113.04 280.95,113.36 C280.965559,113.646249 281.005707,113.930631 281.07,114.21 L281.29,115.58 C281.306425,115.72856 281.28934,115.878913 281.24,116.02 C281.198672,116.166224 281.181778,116.31827 281.19,116.47 L281.29,116.96 C281.29366,117.118168 281.244386,117.273028 281.15,117.4 C281.125111,117.446903 281.125111,117.503097 281.15,117.55 C281.16196,117.592508 281.16196,117.637492 281.15,117.68 L281.22,119.21 C281.229915,119.46649 281.266785,119.721225 281.33,119.97 C281.468161,120.605672 281.558415,121.250817 281.6,121.9 C281.66,122.61 281.69,123.08 281.71,123.3 C281.784559,123.733002 281.828004,124.170789 281.84,124.61 C281.84,125.01 281.84,125.34 281.89,125.61 L281.98,126.73 L282.22,129 C282.247664,129.379497 282.247664,129.760503 282.22,130.14 C282.22,130.91 282.22,132.06 282.38,133.59 L282.65,137.01 C282.675624,137.441556 282.544197,137.867805 282.28,138.21 C282.039375,138.584765 281.690673,138.877674 281.28,139.05 C281.103456,139.107543 280.935323,139.188246 280.78,139.29 C280.632113,139.400658 280.466391,139.48521 280.29,139.54 L280.17,139.54 C279.941875,139.580483 279.717699,139.640709 279.5,139.72 L278.99,139.91 C278.822556,139.962805 278.65229,140.006206 278.48,140.04 C278.248531,140.095155 278.023843,140.17564 277.81,140.28 C277.15739,140.486774 276.488282,140.637323 275.81,140.73 C275.455631,140.812029 275.083664,140.765976 274.76,140.6 C274.39463,140.366596 274.122274,140.012888 273.99,139.6 C273.975215,139.400108 273.978562,139.199288 274,139 C273.986177,138.770224 273.949326,138.542415 273.89,138.32 C273.767256,137.913929 273.696689,137.493888 273.68,137.07 L273.57,135.78 C273.49,135.23 273.41,134.38 273.32,133.22 C273.340277,133.010489 273.340277,132.799511 273.32,132.59 C273.294489,132.360707 273.294489,132.129293 273.32,131.9 C273.383353,131.689543 273.403757,131.468498 273.38,131.25 C273.360125,131.020429 273.360125,130.789571 273.38,130.56 C273.411373,130.310984 273.411373,130.059016 273.38,129.81 C273.383741,129.58358 273.30562,129.363421 273.16,129.19 L273.16,129.08 C273.160062,128.614774 273.102968,128.151302 272.99,127.7 C272.903075,127.340677 272.836304,126.976776 272.79,126.61 L272.63,124.61 C272.607842,124.277035 272.607842,123.942965 272.63,123.61 C272.655723,122.832634 272.632343,122.05442 272.56,121.28 L272.26,119.65 C272.228867,119.484787 272.228867,119.315213 272.26,119.15 C272.301328,119.003776 272.318222,118.85173 272.31,118.7 L272.21,118.22 C272.204864,118.058542 272.254174,117.900048 272.35,117.77 C272.374889,117.723097 272.374889,117.666903 272.35,117.62 C272.336905,117.577656 272.336905,117.532344 272.35,117.49 L272.25,115.57 C272.236183,115.273688 272.196025,114.979193 272.13,114.69 C271.989099,113.973269 271.892251,113.248578 271.84,112.52 C271.78,111.71 271.73,111.18 271.71,110.92 L271.53,108.62 L271.3,105.62 C271.275313,105.353905 271.275313,105.086095 271.3,104.82 C271.3,104.58 271.3,104.38 271.37,104.22 C271.417909,103.742269 271.625818,103.294738 271.96,102.95 C272.206775,102.729875 272.482703,102.544802 272.78,102.4 C273.204271,102.155956 273.65351,101.958157 274.12,101.81 L275.42,101.46 C275.858035,101.276855 276.305306,101.116638 276.76,100.98 C277.32,100.81 277.76,100.69 278.06,100.63 C278.385606,100.528494 278.734394,100.528494 279.06,100.63 C279.409117,100.750436 279.684889,101.022531 279.81,101.37 C279.883834,101.598827 279.940656,101.832797 279.98,102.07 L280.38,106.7 Z" id="Path" fill="#000000" fill-rule="nonzero"></path>
            <path d="M302.14,132.71 L299.67,133.49 C299.32391,133.63462 298.961096,133.735402 298.59,133.79 C298.14,133.88 297.76,133.97 297.46,134.06 L294.76,134.91 C294.358107,135.009197 293.935335,134.981245 293.55,134.83 C293.094533,134.666544 292.744997,134.294698 292.61,133.83 C292.294762,133.201166 292.082079,132.52598 291.98,131.83 C291.920283,131.549802 291.880185,131.265779 291.86,130.98 C291.843013,130.69326 291.799494,130.40871 291.73,130.13 C291.68,129.88 291.59,129.53 291.48,129.13 C291.390913,128.744376 291.246055,128.373809 291.05,128.03 C291.06776,127.850639 291.033018,127.669981 290.95,127.51 C290.859061,127.339763 290.804571,127.152453 290.79,126.96 C290.71178,126.416623 290.574294,125.883446 290.38,125.37 C290.322363,125.214221 290.278854,125.053574 290.25,124.89 C290.232376,124.743253 290.17342,124.604534 290.08,124.49 C290.02,124.28 289.94,124.02 289.84,123.73 C289.746762,123.479339 289.689526,123.216727 289.67,122.95 L289.67,122.67 C289.59,122.62 289.55,122.51 289.53,122.34 C289.51,122.17 289.53,122.07 289.53,122.04 C289.529204,121.928484 289.501776,121.818771 289.45,121.72 C289.388924,121.563577 289.355101,121.397846 289.35,121.23 C289.343963,121.065507 289.310153,120.903219 289.25,120.75 C289.133808,120.478157 289.053143,120.192469 289.01,119.9 L288.84,119.15 C288.53,118.15 288.28,117.45 288.09,116.98 C288.04,116.88 288,116.77 287.95,116.65 L287.8,116.27 C287.710733,116.027427 287.633966,115.780436 287.57,115.53 C287.55839,115.376901 287.528167,115.225787 287.48,115.08 C287.432074,114.930724 287.401867,114.776331 287.39,114.62 L287.39,114.45 C287.420086,114.273581 287.395667,114.092183 287.32,113.93 L287.14,113.44 C287.0904,113.251219 287.016445,113.069696 286.92,112.9 C286.84,112.76 286.77,112.64 286.72,112.53 C286.711669,112.401764 286.691585,112.274564 286.66,112.15 C286.642376,112.003253 286.58342,111.864534 286.49,111.75 C286.496773,111.413311 286.459797,111.077167 286.38,110.75 C286.29,110.38 286.22,110.1 286.17,109.93 C286.044994,109.320191 285.860788,108.724034 285.62,108.15 C285.550012,108.012298 285.493096,107.868334 285.45,107.72 C285.383764,107.512054 285.278559,107.318612 285.14,107.15 C285.028357,107.000459 284.946845,106.830644 284.9,106.65 C284.850918,106.470182 284.7696,106.300769 284.66,106.15 C284.66,106.15 284.6,106.03 284.66,105.85 C284.72,105.67 284.66,105.57 284.54,105.52 C284.563635,105.351235 284.532064,105.179351 284.45,105.03 C284.361138,104.84827 284.306881,104.651587 284.29,104.45 L284.29,104.34 C284.309816,104.170089 284.285715,103.997936 284.22,103.84 C284.149241,103.650395 284.10548,103.451786 284.09,103.25 L284.09,103.08 C284.116483,102.854107 284.116483,102.625893 284.09,102.4 C284.086116,102.176031 284.027769,101.956374 283.92,101.76 C283.882326,101.538256 283.882326,101.311744 283.92,101.09 C283.94023,100.860445 283.94023,100.629555 283.92,100.4 L283.92,100.23 C283.85,99.9 284.04,99.56 284.47,99.23 C284.858705,98.8423479 285.325817,98.5423051 285.84,98.35 L287.02,97.98 C287.28,97.89 287.61,97.8 288.02,97.7 C288.43,97.6 288.87,97.44 289.4,97.24 C289.782869,97.1079523 290.185,97.0403673 290.59,97.04 C291.387176,96.9137389 292.164923,97.3587598 292.46,98.11 C292.683069,98.4092129 292.846071,98.7488001 292.94,99.11 C292.96088,99.2655953 293.004689,99.4172404 293.07,99.56 C293.135802,99.7407281 293.179453,99.9287662 293.2,100.12 L293.2,100.29 C293.166241,100.382389 293.185396,100.485827 293.25,100.56 C293.311484,100.652774 293.349255,100.759222 293.36,100.87 L293.36,100.98 C293.36,100.98 293.36,101.12 293.36,101.29 C293.374742,101.446413 293.426131,101.597153 293.51,101.73 C293.63,101.73 293.65,101.96 293.56,102.29 C293.561967,102.385681 293.597344,102.47766 293.66,102.55 C293.73105,102.613537 293.771158,102.704691 293.77,102.8 C293.823611,103.096642 293.903938,103.387828 294.01,103.67 C294.11,103.93 294.18,104.14 294.24,104.32 C294.3772,104.558183 294.456019,104.825483 294.47,105.1 C294.52,105.28 294.61,105.54 294.73,105.88 C294.849334,106.1996 294.907019,106.53892 294.9,106.88 C295.019714,106.976373 295.095439,107.117005 295.11,107.27 L295.11,107.5 L295.11,107.83 C295.17,108.05 295.23,108.33 295.29,108.69 C295.339115,109.002859 295.444122,109.304328 295.6,109.58 C295.647878,109.7082 295.674887,109.843247 295.68,109.98 C295.68,110.15 295.74,110.26 295.83,110.31 C295.806426,110.505703 295.841217,110.704009 295.93,110.88 C296.016765,111.073063 296.070835,111.279206 296.09,111.49 L296.09,111.6 C296.047641,111.695514 296.047641,111.804486 296.09,111.9 C296.157799,112.001517 296.199058,112.118416 296.21,112.24 C296.21,112.31 296.21,112.42 296.21,112.55 C296.18998,112.670092 296.263052,112.786147 296.38,112.82 C296.35347,113.016139 296.377567,113.215805 296.45,113.4 C296.52,113.58 296.58,113.73 296.63,113.83 C296.69,114.12 296.74,114.41 296.79,114.73 C296.84,115.05 296.88,115.34 296.94,115.62 C297,115.9 297.06,116.01 297.15,116.39 C297.228266,116.741265 297.359786,117.078495 297.54,117.39 C297.782346,117.808188 297.938738,118.270563 298,118.75 L298,119.32 C298,119.44 298,119.5 298.07,119.53 C298.180033,119.764835 298.238023,120.020673 298.24,120.28 C298.208829,120.401273 298.242912,120.530031 298.33,120.62 C298.405773,120.715243 298.454172,120.829326 298.47,120.95 C298.47,121.18 298.67,121.33 299.03,121.41 C299.39,121.49 299.5,121.32 299.52,121.08 C299.546409,120.962465 299.593838,120.85067 299.66,120.75 C299.724204,120.678599 299.759811,120.586022 299.76,120.49 L299.76,120.44 C299.91627,120.247931 300.00109,120.007608 300,119.76 C299.937758,119.51049 299.937758,119.24951 300,119 C299.944685,118.685749 299.944685,118.364251 300,118.05 C300.059708,117.719328 300.099778,117.38541 300.12,117.05 C300.074993,116.718186 300.074993,116.381814 300.12,116.05 C300.131084,115.876844 300.131084,115.703156 300.12,115.53 C300.103767,115.350366 300.103767,115.169634 300.12,114.99 C300.140278,114.81726 300.140278,114.64274 300.12,114.47 C300.098521,114.317419 300.098521,114.162581 300.12,114.01 C300.147382,113.834394 300.147382,113.655606 300.12,113.48 C300.091073,113.328031 300.091073,113.171969 300.12,113.02 C300.183897,112.809649 300.204311,112.588493 300.18,112.37 C300.147679,112.154434 300.19381,111.934427 300.31,111.75 C300.219158,111.360768 300.247022,110.953245 300.39,110.58 L300.67,108.31 C300.83783,107.889972 300.948811,107.449411 301,107 C300.949802,106.708814 300.949802,106.411186 301,106.12 C301.0309,105.998602 301.0309,105.871398 301,105.75 C300.957556,105.603512 300.999931,105.44557 301.11,105.34 C301.045149,105.046877 301.045149,104.743123 301.11,104.45 C301.171766,104.162632 301.218496,103.872238 301.25,103.58 C301.25,103.42 301.25,103.16 301.3,102.81 C301.301595,102.487296 301.37684,102.169215 301.52,101.88 L301.52,101.77 C301.464053,101.439014 301.464053,101.100986 301.52,100.77 C301.54244,100.617488 301.54244,100.462512 301.52,100.31 C301.486258,100.146744 301.511039,99.9768204 301.59,99.83 C301.543364,99.6057321 301.543364,99.3742679 301.59,99.15 C301.612414,98.933913 301.612414,98.716087 301.59,98.5 L301.59,98.39 C301.577123,98.2570294 301.597751,98.1229511 301.65,98 C301.702249,97.8770489 301.722877,97.7429706 301.71,97.61 C301.609699,97.3986516 301.632705,97.1494164 301.77,96.96 C301.801702,96.8866105 301.801702,96.8033895 301.77,96.73 C301.746211,96.6380797 301.729496,96.5444727 301.72,96.45 C301.719753,96.3566667 301.740247,96.2644444 301.78,96.18 C301.826968,96.0942174 301.851074,95.997793 301.85,95.9 C301.814824,95.374661 301.911054,94.8488329 302.13,94.37 C302.450626,93.5887642 303.064458,92.9641632 303.84,92.63 C304.51382,92.3346005 305.205116,92.080791 305.91,91.87 L307.99,91.22 C308.50888,91.0658636 309.048919,90.9949835 309.59,91.01 C309.759145,90.9912719 309.928672,91.0417693 310.06,91.15 L310.33,91.26 C310.462155,91.3097024 310.564964,91.4161832 310.61,91.55 C310.77,92.07 310.85,92.37 310.86,92.45 C310.853449,92.6324105 310.826618,92.8135254 310.78,92.99 C310.755434,93.0681141 310.755434,93.1518859 310.78,93.23 C310.792899,94.0057893 310.719109,94.7805924 310.56,95.54 C310.4,96.39 310.29,96.96 310.24,97.24 C310.172844,97.3325424 310.140928,97.4460185 310.15,97.56 L310.15,97.78 C310.182101,97.895104 310.147395,98.0185044 310.06,98.1 C310.110588,98.2594163 310.110588,98.4305837 310.06,98.59 C310.004233,98.7747673 309.977251,98.96702 309.98,99.16 L309.98,99.27 C310.027244,99.4094403 310.027244,99.5605597 309.98,99.7 C309.94222,99.8468959 309.925386,99.9983936 309.93,100.15 L309.93,100.26 C309.938331,100.388236 309.958415,100.515436 309.99,100.64 C310.015905,100.843816 309.958187,101.049438 309.83,101.21 L309.83,101.37 L309.93,101.86 C309.949638,102.156342 309.949638,102.453658 309.93,102.75 C309.93,103 309.93,103.23 309.87,103.43 C309.814444,104.272393 309.707579,105.110614 309.55,105.94 C309.55,106.1 309.47,106.36 309.41,106.73 C309.343071,107.058843 309.319537,107.39504 309.34,107.73 C309.354658,107.903023 309.354658,108.076977 309.34,108.25 C309.320206,108.442827 309.320206,108.637173 309.34,108.83 C309.390807,109.026773 309.390807,109.233227 309.34,109.43 C309.34,109.65 309.27,109.82 309.24,109.95 C309.189428,110.535436 309.099222,111.116769 308.97,111.69 C308.938286,111.960539 308.884779,112.228075 308.81,112.49 C308.726568,112.761868 308.689384,113.045816 308.7,113.33 C308.63116,113.421719 308.599063,113.535844 308.61,113.65 L308.61,113.87 C308.642772,113.967315 308.642772,114.072685 308.61,114.17 C308.541304,114.265343 308.519261,114.386578 308.55,114.5 C308.572901,114.581964 308.589614,114.665533 308.6,114.75 C308.621171,114.845507 308.621171,114.944493 308.6,115.04 C308.52336,115.247565 308.499311,115.470877 308.53,115.69 L308.53,115.92 C308.546789,116.009217 308.546789,116.100783 308.53,116.19 C308.514683,116.296117 308.514683,116.403883 308.53,116.51 L308.53,116.62 C308.531604,116.841432 308.511508,117.062488 308.47,117.28 C308.416881,117.486378 308.383398,117.697317 308.37,117.91 C308.37,118.08 308.37,118.22 308.37,118.34 C308.348405,119.266881 308.227719,120.188793 308.01,121.09 C308.054079,121.257143 308.054079,121.432857 308.01,121.6 C307.98729,121.775937 307.98729,121.954063 308.01,122.13 L308.01,122.3 C307.934058,122.628278 307.890516,122.963217 307.88,123.3 C307.878145,123.636811 307.837885,123.972312 307.76,124.3 C307.709357,124.63141 307.709357,124.96859 307.76,125.3 C307.76,125.76 307.71,126.46 307.63,127.4 C307.531976,128.333235 307.316955,129.250434 306.99,130.13 C306.729409,130.961987 306.06182,131.603174 305.22,131.83 L302.14,132.71 Z" id="Path" fill="#000000" fill-rule="nonzero"></path>
            <path d="M338.3,121.39 L336.67,121.9 C336.422724,121.976891 336.167948,122.027176 335.91,122.05 C335.648308,122.075368 335.390135,122.129014 335.14,122.21 C335.063485,122.243394 334.976515,122.243394 334.9,122.21 C334.283267,122.109484 333.780397,121.661189 333.61,121.06 L332.69,118.2 C332.489802,117.605785 332.056646,117.118484 331.49,116.85 L331.31,116.85 C331.131367,116.944929 330.943788,117.021971 330.75,117.08 C330.539006,117.143258 330.334701,117.226989 330.14,117.33 C329.468711,117.761463 328.833318,118.246369 328.24,118.78 C327.841174,119.116381 327.423857,119.430203 326.99,119.72 L325.99,120.4 C325.171684,121.032437 324.593243,121.924788 324.35,122.93 L324.15,124.02 C324.045129,124.390569 323.918237,124.754549 323.77,125.11 C323.45688,125.720468 322.913504,126.181079 322.26,126.39 L320.01,127.15 L317.7,127.82 C317.199954,128.005335 316.650046,128.005335 316.15,127.82 C315.79,127.67 315.61,127.54 315.6,127.42 C315.595529,127.290943 315.553857,127.165928 315.48,127.06 C315.414052,126.947333 315.376314,126.820396 315.37,126.69 C315.37,126.54 315.37,126.32 315.32,126.02 C315.29306,125.736073 315.327155,125.449667 315.42,125.18 C315.372786,124.955792 315.372786,124.724208 315.42,124.5 C315.438186,124.27036 315.438186,124.03964 315.42,123.81 C315.407353,123.673626 315.407353,123.536374 315.42,123.4 C315.445664,123.209667 315.489189,123.022173 315.55,122.84 C315.620399,122.741577 315.642458,122.616575 315.61,122.5 C315.601404,122.420231 315.601404,122.339769 315.61,122.26 C315.587144,122.130948 315.615872,121.998082 315.69,121.89 C315.656996,121.580878 315.656996,121.269122 315.69,120.96 C315.69,120.6 315.78,120.34 315.8,120.18 C315.82,120.02 315.86,119.53 315.92,119.05 C315.960395,118.641367 316.033971,118.236699 316.14,117.84 C316.160923,117.69408 316.160923,117.54592 316.14,117.4 C316.123818,117.25378 316.123818,117.10622 316.14,116.96 C316.211476,116.629824 316.264888,116.295995 316.3,115.96 C316.327537,115.623682 316.37765,115.289596 316.45,114.96 L316.5,114.14 C316.567088,113.809455 316.617154,113.475682 316.65,113.14 C316.65,112.74 316.75,112.4 316.8,112.14 C316.753382,111.963018 316.753382,111.776982 316.8,111.6 C316.822514,111.414012 316.822514,111.225988 316.8,111.04 L316.8,110.93 C316.746512,110.80898 316.746512,110.67102 316.8,110.55 C316.848724,110.442469 316.879143,110.327554 316.89,110.21 C316.774479,109.980961 316.797681,109.706405 316.95,109.5 C316.882877,109.171111 316.866018,108.833944 316.9,108.5 C316.9,108.15 316.96,107.89 316.98,107.73 C316.970142,107.161617 317.003572,106.593308 317.08,106.03 C317.10589,105.887836 317.10589,105.742164 317.08,105.6 C317.072658,105.387717 317.096238,105.175494 317.15,104.97 C317.15,104.74 317.2,104.31 317.25,103.68 C317.281073,103.103308 317.381805,102.532494 317.55,101.98 C317.551576,101.610189 317.608886,101.242727 317.72,100.89 C317.840626,100.529732 317.87823,100.146852 317.83,99.77 C317.900231,99.5402869 317.920685,99.2982413 317.89,99.06 L317.89,98.84 C317.91755,98.6712434 317.934251,98.5008939 317.94,98.33 C317.946171,98.1624501 317.962871,97.9954541 317.99,97.83 C318.064642,97.4741819 318.11145,97.1130894 318.13,96.75 C318.13,96.44 318.13,96.17 318.18,95.93 L318.37,93.93 C318.48,92.86 318.55,92.29 318.58,92.2 C318.636545,91.829276 318.666621,91.4549963 318.67,91.08 C318.67,90.92 318.72,90.67 318.75,90.31 C318.773292,89.9710924 318.833652,89.6357577 318.93,89.31 C319.015526,88.9177148 319.186219,88.5490187 319.43,88.23 C319.701584,87.9260084 320.045558,87.6955461 320.43,87.56 L325.38,86.01 L325.94,85.87 C326.19953,85.8049468 326.446294,85.6967762 326.67,85.55 C326.899153,85.4149925 327.140154,85.3011869 327.39,85.21 L328.12,84.98 L328.62,84.82 L330.62,84.19 C330.965134,84.0823527 331.334866,84.0823527 331.68,84.19 C332.050972,84.325915 332.403662,84.5072984 332.73,84.73 C332.801459,84.9028846 332.892021,85.0672386 333,85.22 C333.118453,85.3858208 333.21273,85.56764 333.28,85.76 C333.66,86.76 333.93,87.45 334.08,87.98 C334.24183,88.2484811 334.344135,88.5485761 334.38,88.86 L334.38,89.15 C334.348622,89.2478881 334.38036,89.3550061 334.46,89.42 C334.529472,89.4828047 334.575349,89.5675006 334.59,89.66 L334.59,89.72 C334.53,90 334.59,90.16 334.74,90.19 C334.719246,90.4131884 334.746525,90.6382333 334.82,90.85 C334.87138,91.024217 334.934868,91.1946319 335.01,91.36 C335.01,91.52 335.06,91.79 335.13,92.19 C335.185432,92.5296948 335.269054,92.8641838 335.38,93.19 L335.56,94.05 L335.8,94.78 C335.8,94.92 335.9,95.1 335.96,95.33 C335.994729,95.5217998 336.066024,95.7051298 336.17,95.87 C336.273545,96.0325556 336.34799,96.2119015 336.39,96.4 C336.427256,96.5898493 336.477371,96.7769471 336.54,96.96 C336.645866,97.0935667 336.702382,97.2595827 336.7,97.43 C336.704405,97.504782 336.740852,97.5740301 336.8,97.62 C336.850029,97.6848006 336.850029,97.7751994 336.8,97.84 C336.784049,98.0736894 336.81464,98.3082208 336.89,98.53 C336.97,98.79 337.03,98.97 337.07,99.07 C337.13,99.25 337.19,99.49 337.28,99.81 C337.343764,100.077082 337.430762,100.338076 337.54,100.59 C337.597353,100.726218 337.627911,100.872215 337.63,101.02 C337.63,101.21 337.69,101.33 337.77,101.38 C337.808765,101.680909 337.8826,101.97625 337.99,102.26 C338.11,102.58 338.2,102.84 338.25,103.01 C338.358957,103.473434 338.492479,103.930746 338.65,104.38 C338.81183,104.648481 338.914135,104.948576 338.95,105.26 L338.95,105.43 C338.925374,105.539144 338.943253,105.65357 339,105.75 C339.06248,105.864876 339.103165,105.990321 339.12,106.12 L339.12,106.55 C339.097605,106.696228 339.164462,106.841741 339.29,106.92 C339.315505,106.95958 339.315505,107.01042 339.29,107.05 C339.25647,107.090644 339.25647,107.149356 339.29,107.19 C339.330638,107.529695 339.404321,107.864614 339.51,108.19 C339.627936,108.561995 339.68863,108.949759 339.69,109.34 C339.82891,109.447008 339.907213,109.614801 339.9,109.79 L339.9,110.01 L340.06,110.7 C340.177478,110.94966 340.26799,111.211139 340.33,111.48 C340.385565,111.730118 340.472943,111.972087 340.59,112.2 C340.583495,112.323248 340.583495,112.446752 340.59,112.57 C340.59,112.74 340.66,112.84 340.78,112.88 C340.753439,113.255013 340.844312,113.628991 341.04,113.95 L341.1,114.36 C341.130034,114.53753 341.213802,114.701575 341.34,114.83 C341.335046,115.153346 341.399851,115.473962 341.53,115.77 C341.653276,116.067859 341.737314,116.380477 341.78,116.7 C341.858984,116.863628 341.9097,117.039444 341.93,117.22 L341.99,118.01 L341.99,118.23 C342.014434,118.619477 341.927736,119.007883 341.74,119.35 C341.601843,119.66946 341.353385,119.928566 341.04,120.08 L340.55,120.38 C340.392791,120.47837 340.225084,120.558869 340.05,120.62 L338.3,121.39 Z M327.19,110.64 C327.308179,110.556364 327.445968,110.504693 327.59,110.49 C327.729892,110.464984 327.862846,110.410439 327.98,110.33 L329.06,109.42 C329.510947,108.939544 329.767515,108.308813 329.78,107.65 C329.78,107.53 329.78,107.36 329.78,107.13 C329.789108,106.923073 329.721443,106.720077 329.59,106.56 C329.540167,106.442352 329.509771,106.317392 329.5,106.19 C329.5,106.04 329.5,105.93 329.5,105.85 C329.501966,105.714414 329.447658,105.584076 329.35,105.49 C329.356921,105.081632 329.306427,104.674317 329.2,104.28 C329.140393,104.010898 329.060156,103.746784 328.96,103.49 C328.76,102.83 328.63,102.38 328.57,102.12 C328.360456,101.383311 328.110069,100.658858 327.82,99.95 C327.71565,99.6759977 327.512227,99.4511613 327.25,99.32 C327.09,99.22 326.94,99.32 326.8,99.46 C326.597443,99.7658368 326.448634,100.104037 326.36,100.46 C326.289606,100.733103 326.236171,101.010299 326.2,101.29 C326.161195,101.570027 326.104411,101.847266 326.03,102.12 C325.963339,102.391626 325.929762,102.670314 325.93,102.95 C325.925065,103.24451 325.867492,103.535763 325.76,103.81 C325.82089,104.140553 325.82089,104.479447 325.76,104.81 C325.69,105.23 325.65,105.56 325.63,105.81 C325.609252,106.002777 325.609252,106.197223 325.63,106.39 C325.657152,106.56227 325.657152,106.73773 325.63,106.91 C325.587418,107.241973 325.587418,107.578027 325.63,107.91 C325.638845,108.049357 325.618406,108.189021 325.57,108.32 C325.527735,108.455753 325.510786,108.598119 325.52,108.74 C325.568755,108.919194 325.592315,109.104306 325.59,109.29 C325.59,109.45 325.59,109.58 325.59,109.69 C325.666024,109.996303 325.787362,110.289537 325.95,110.56 C326.113623,110.816884 326.43178,110.928446 326.72,110.83 L326.89,110.78 L327.19,110.64 Z" id="Shape" fill="#000000" fill-rule="nonzero"></path>
            <path d="M342.35,93.78 L341.52,83.31 C341.523345,82.8030311 341.661392,82.3060626 341.92,81.87 C342.091793,81.6216016 342.308927,81.4078604 342.56,81.24 C342.806525,81.0677697 343.0675,80.9172075 343.34,80.79 C343.989468,80.4991311 344.657619,80.2519155 345.34,80.05 C345.64,79.95 346.02,79.85 346.47,79.72 C347.002037,79.574142 347.526085,79.4005718 348.04,79.2 C348.457786,79.1030822 348.892214,79.1030822 349.31,79.2 C349.574657,79.2657721 349.790915,79.4559297 349.89,79.71 C349.959739,79.8781623 350.039895,80.041813 350.13,80.2 L350.13,80.43 L350.13,80.88 L350.33,83.4 L350.52,85.86 L350.74,88.66 C350.772409,88.9970058 350.829225,89.3312164 350.91,89.66 C350.992272,89.9867261 351.029284,90.3232028 351.02,90.66 L351.22,93.12 L351.42,95.64 L351.61,98.11 L351.81,100.63 L352,103.09 C352.053691,103.333745 352.053691,103.586255 352,103.83 C351.976025,104.099468 351.976025,104.370532 352,104.64 L352,104.81 C352.069278,105.138934 352.106121,105.473872 352.11,105.81 C352.09778,106.046509 352.09778,106.283491 352.11,106.52 C352.116175,106.907558 352.204807,107.289357 352.37,107.64 C352.51,108.02 352.88,108.23 353.46,108.28 C353.862119,108.324726 354.269051,108.294206 354.66,108.19 C355.069164,108.065865 355.486979,107.972274 355.91,107.91 C356.449203,107.812783 356.978161,107.665478 357.49,107.47 C357.703203,107.364128 357.928066,107.28358 358.16,107.23 C358.333329,107.200969 358.503924,107.157484 358.67,107.1 C358.927361,106.98624 359.200451,106.912068 359.48,106.88 C359.760327,106.842962 360.037685,106.786154 360.31,106.71 L360.53,106.63 C360.981575,106.487538 361.468094,106.707117 361.66,107.14 C361.860875,107.320764 361.985914,107.570841 362.01,107.84 L362.01,108 L362.09,109 C362.082822,109.372217 362.133424,109.743295 362.24,110.1 C362.343681,110.49337 362.413931,110.894798 362.45,111.3 C362.588234,112.450743 361.982088,113.562681 360.94,114.07 C360.496143,114.322119 360.026866,114.526589 359.54,114.68 C359.302758,114.760214 359.058272,114.817149 358.81,114.85 C358.548287,114.885883 358.290499,114.946145 358.04,115.03 C357.793145,115.114648 357.538599,115.174935 357.28,115.21 C357.027695,115.198506 356.775743,115.239363 356.54,115.33 L355.87,115.54 C355.650337,115.619632 355.422124,115.673329 355.19,115.7 C355.019151,115.751596 354.857258,115.829171 354.71,115.93 C354.567302,116.032418 354.40843,116.110164 354.24,116.16 L354.13,116.16 C353.956238,116.169941 353.78465,116.203586 353.62,116.26 C353.424673,116.313605 353.236617,116.390842 353.06,116.49 C352.837572,116.685249 352.574582,116.828698 352.29,116.91 L351.83,116.99 C350.83,117.23 350.14,117.41 349.69,117.55 L348.51,117.92 C348.24,118 347.91,118.12 347.51,118.27 C347.11,118.42 346.63,118.55 346.1,118.68 C345.64204,118.820674 345.148797,118.792286 344.71,118.6 C344.388496,118.397201 344.186751,118.049752 344.17,117.67 L344,116.23 C343.900552,115.781279 343.827097,115.32719 343.78,114.87 L343.39,109.94 C343.370126,109.653678 343.370126,109.366322 343.39,109.08 C343.40983,108.797014 343.40983,108.512986 343.39,108.23 L343.39,107.95 L343.23,105.95 C343.23,105.95 343.23,105.82 343.23,105.67 C343.234809,105.553201 343.182606,105.441339 343.09,105.37 C343.042977,105.287327 343.015604,105.194945 343.01,105.1 C342.993962,105.003999 342.993962,104.906001 343.01,104.81 C343.070845,104.675182 343.098288,104.52768 343.09,104.38 C343.09,104.23 343.09,104.14 343.09,104.1 L342.35,93.78 Z" id="Path" fill="#000000" fill-rule="nonzero"></path>
        </g>
    </g>
</svg>